<svg width="890" height="356" viewBox="0 0 890 356" fill="none" xmlns="http://www.w3.org/2000/svg">
<g filter="url(#filter0_n_360_461)">
<path d="M384 71.4492C383.996 67.8002 388.79 66.1456 391.354 68.71L414.155 91.5098L437.1 114.454C439.644 116.998 437.768 122.435 434.147 122.484H388.438C386.185 122.515 384.004 119.856 384.001 117.603L384 71.4492ZM502.489 4.00037e-06C504.69 0.00365253 506.479 2.23772 506.482 4.43848V118.489C506.486 120.69 504.69 122.486 502.489 122.483H452.785C450.584 122.48 448.794 120.69 448.791 118.489L448.79 62.8145C448.787 60.6136 446.825 58.6069 444.624 58.6035H388.266C386.065 58.6002 384.003 56.7859 384 54.585V3.99414C383.997 1.79353 385.793 -0.00309394 387.993 4.00037e-06H502.489Z" fill="white"/>
</g>
<path d="M299.8 224.828C309.288 224.828 317.296 226.818 323.825 230.797C330.355 234.776 335.303 240.336 338.67 247.478C342.036 254.619 343.72 262.985 343.72 272.574C343.72 282.164 342.087 290.581 338.822 297.824C335.558 304.966 330.814 310.526 324.591 314.505C318.368 318.382 310.818 320.32 301.942 320.32C295.209 320.32 289.444 319.096 284.649 316.647C279.855 314.097 276.08 310.526 273.325 305.936H272.713V355.212H247.31V251.762H234.761V226.665H260.471V241.662H266.897C270.162 236.357 274.498 232.225 279.905 229.267C285.414 226.308 292.046 224.828 299.8 224.828ZM776.285 224.828C785.875 224.828 794.087 226.665 800.923 230.338C807.86 234.011 813.166 239.264 816.839 246.1C820.512 252.935 822.348 261.097 822.348 270.585V279.154H752.719C753.739 285.989 756.34 291.193 760.522 294.764C764.705 298.334 770.215 300.12 777.051 300.12C782.458 300.12 786.743 299.202 789.905 297.365C793.068 295.529 795.312 292.724 796.639 288.949H822.042C820.002 298.743 815.053 306.446 807.197 312.057C799.342 317.566 789.344 320.32 777.203 320.32C767.307 320.32 758.686 318.382 751.341 314.505C743.995 310.526 738.333 304.966 734.354 297.824C730.376 290.581 728.387 282.062 728.387 272.269C728.387 262.475 730.325 254.058 734.201 247.019C738.078 239.877 743.587 234.418 750.729 230.644C757.972 226.767 766.491 224.828 776.285 224.828ZM460.449 224.828C474.12 224.828 484.526 227.889 491.668 234.011C498.911 240.132 502.533 249.059 502.533 260.791V293.387H514.47V318.483H488.761V303.486H482.333C479.17 308.791 474.937 312.924 469.632 315.883C464.327 318.739 457.695 320.167 449.737 320.167C438.923 320.167 430.455 317.565 424.334 312.362C418.213 307.057 415.152 300.12 415.152 291.551C415.152 282.471 418.315 275.482 424.641 270.585C430.966 265.688 440.046 263.239 451.88 263.239H478.201V259.72C478.201 249.824 472.284 244.876 460.449 244.876C450.145 244.876 443.923 248.447 441.78 255.588H416.529C418.57 245.488 423.314 237.836 430.762 232.633C438.209 227.43 448.105 224.828 460.449 224.828ZM25.4033 318.483H0V226.665H25.4033V318.483ZM175.299 224.981C187.133 224.981 196.52 228.45 203.457 235.388C210.394 242.223 213.863 251.507 213.863 263.239V318.483H188.46V268.137C188.46 254.466 181.981 247.63 169.024 247.63C156.068 247.63 149.59 254.466 149.59 268.137V318.483H124.187V268.137C124.187 254.466 117.606 247.63 104.445 247.63C98.12 247.63 93.3252 249.314 90.0605 252.681C86.898 256.047 85.3164 261.199 85.3164 268.137V318.483H59.9131V251.762H47.3643V226.665H73.0742V241.662H79.8076C83.0722 236.357 87.3059 232.276 92.5088 229.42C97.7119 226.461 104.139 224.981 111.791 224.981C119.136 224.981 125.411 226.307 130.614 228.96C135.919 231.51 140.153 235.337 143.315 240.438H143.928C150.967 230.134 161.424 224.981 175.299 224.981ZM392.118 318.483H366.715V189.938H392.118V318.483ZM592.857 224.981C605.61 224.981 615.455 228.502 622.393 235.541C629.432 242.478 632.952 251.813 632.952 263.546V318.483H607.549V268.289C607.549 261.556 605.713 256.455 602.04 252.986C598.469 249.416 593.215 247.63 586.277 247.63C579.34 247.63 574.035 249.416 570.362 252.986C566.792 256.455 565.006 261.556 565.006 268.289V318.483H539.603V251.762H527.055V226.665H552.764V241.662H559.19C562.761 236.357 567.25 232.277 572.657 229.42C578.064 226.461 584.798 224.981 592.857 224.981ZM868.109 318.483H842.706V226.665H868.109V318.483ZM698.917 226.545H714.941V246.453H699.223V298.215C699.223 305.055 697.442 310.16 693.881 313.529C690.218 316.796 685.132 318.43 678.621 318.43H650.846V298.521L662.03 298.079C662.091 298.081 670.168 298.353 671.883 295.862C673.595 293.375 673.319 289.901 673.316 289.865L673.89 246.453H652.982V226.545H674.195V198.979H698.917V226.545ZM453.104 280.073C443.923 280.073 439.331 283.491 439.331 290.326C439.331 293.693 440.607 296.295 443.157 298.131C445.708 299.967 449.177 300.885 453.563 300.885C458.358 300.885 462.592 300.018 466.265 298.284C469.937 296.55 472.845 294.254 474.987 291.397C477.13 288.439 478.201 285.123 478.201 281.45V280.073H453.104ZM295.056 246.865C288.22 246.865 282.762 248.804 278.681 252.681C274.702 256.455 272.713 261.709 272.713 268.442V276.706C272.713 283.439 274.702 288.744 278.681 292.621C282.762 296.396 288.22 298.284 295.056 298.284C302.809 298.284 308.624 295.988 312.501 291.397C316.378 286.807 318.316 280.532 318.316 272.574C318.316 264.617 316.378 258.343 312.501 253.752C308.624 249.161 302.809 246.865 295.056 246.865ZM776.438 244.876C770.215 244.876 765.114 246.355 761.135 249.313C757.258 252.272 754.656 256.608 753.33 262.321H798.016C797.199 256.506 794.955 252.17 791.282 249.313C787.61 246.355 782.662 244.876 776.438 244.876ZM38.46 220.544H12.4443V196.059H38.46V220.544ZM889.53 220.544H864.131V196.059H889.53V220.544Z" fill="url(#paint0_linear_360_461)"/>
<defs>
<filter id="filter0_n_360_461" x="384" y="0" width="122.482" height="122.484" filterUnits="userSpaceOnUse" color-interpolation-filters="sRGB">
<feFlood flood-opacity="0" result="BackgroundImageFix"/>
<feBlend mode="normal" in="SourceGraphic" in2="BackgroundImageFix" result="shape"/>
<feTurbulence type="fractalNoise" baseFrequency="1.4285714626312256 1.4285714626312256" stitchTiles="stitch" numOctaves="3" result="noise" seed="1474" />
<feColorMatrix in="noise" type="luminanceToAlpha" result="alphaNoise" />
<feComponentTransfer in="alphaNoise" result="coloredNoise1">
<feFuncA type="discrete" tableValues="0 0 0 0 0 0 0 0 0 1 1 1 1 1 1 1 1 1 1 1 1 1 1 1 1 1 1 1 1 1 1 1 1 1 1 1 1 1 1 1 0 0 0 0 0 0 0 0 0 0 0 0 0 0 0 0 0 0 0 0 0 0 0 0 0 0 0 0 0 0 0 0 0 0 0 0 0 0 0 0 0 0 0 0 0 0 0 0 0 0 0 0 0 0 0 0 0 0 0 0 "/>
</feComponentTransfer>
<feComposite operator="in" in2="shape" in="coloredNoise1" result="noise1Clipped" />
<feFlood flood-color="rgba(0, 0, 0, 0.3)" result="color1Flood" />
<feComposite operator="in" in2="noise1Clipped" in="color1Flood" result="color1" />
<feMerge result="effect1_noise_360_461">
<feMergeNode in="shape" />
<feMergeNode in="color1" />
</feMerge>
</filter>
<linearGradient id="paint0_linear_360_461" x1="2.37225e-09" y1="272.575" x2="943.794" y2="271.204" gradientUnits="userSpaceOnUse">
<stop offset="0.221154" stop-color="white"/>
<stop offset="0.673077" stop-color="#B39CFC"/>
<stop offset="1" stop-color="#F2F4FF"/>
</linearGradient>
</defs>
</svg>
